<?xml version="1.0" encoding="UTF-8"?>
<svg width="160px" height="104px" viewBox="0 0 160 104" version="1.1" xmlns="http://www.w3.org/2000/svg">
  <title>Cron</title>
  <rect x="8" y="8" width="144" height="88" rx="6" fill="#141414" stroke="#303030"/>
  <rect x="16" y="16" width="128" height="20" rx="4" fill="#141414" stroke="#424242"/>
  <rect x="22" y="21" width="8" height="10" rx="2" fill="#303030"/>
  <rect x="32" y="21" width="8" height="10" rx="2" fill="#303030"/>
  <rect x="42" y="21" width="8" height="10" rx="2" fill="#111A2C"/>
  <rect x="52" y="21" width="8" height="10" rx="2" fill="#303030"/>
  <rect x="62" y="21" width="8" height="10" rx="2" fill="#303030"/>
  <rect x="72" y="21" width="8" height="10" rx="2" fill="#303030"/>
  <circle cx="132" cy="26" r="6" fill="none" stroke="#4096FF" stroke-width="1.5"/>
  <path d="M132 22.5V26L134.5 27.5" fill="none" stroke="#4096FF" stroke-width="1.5" stroke-linecap="round" stroke-linejoin="round"/>
  <rect x="16" y="40" width="128" height="48" rx="4" fill="#141414" stroke="#303030"/>
  <path d="M50 44V84" stroke="#303030"/>
  <rect x="20" y="44" width="26" height="6" rx="2" fill="#303030"/>
  <rect x="20" y="52" width="26" height="6" rx="2" fill="#303030"/>
  <rect x="19" y="59" width="28" height="8" rx="2" fill="#111A2C"/>
  <rect x="19" y="59" width="2" height="8" rx="1" fill="#4096FF"/>
  <rect x="20" y="70" width="26" height="6" rx="2" fill="#303030"/>
  <rect x="20" y="78" width="26" height="6" rx="2" fill="#303030"/>
  <rect x="56" y="44" width="80" height="12" rx="4" fill="#303030"/>
  <rect x="58" y="46" width="18" height="8" rx="3" fill="#141414"/>
  <rect x="56" y="60" width="28" height="12" rx="3" fill="#141414" stroke="#424242"/>
  <rect x="62" y="64" width="16" height="4" rx="2" fill="#303030"/>
  <rect x="92" y="60" width="28" height="12" rx="3" fill="#141414" stroke="#424242"/>
  <rect x="98" y="64" width="16" height="4" rx="2" fill="#303030"/>
  <rect x="56" y="76" width="64" height="6" rx="3" fill="#303030"/>
</svg>
